<svg width="233" height="37" viewBox="0 0 233 37" fill="none" xmlns="http://www.w3.org/2000/svg">
<path d="M10.002 7.98828V24.3359L23.4844 8.16406L36.9316 24.3359V7.98828H43.8047V32H33.5918L23.3613 19.4316L12.5508 32H3.09375V7.98828H10.002ZM52.3603 32H44.2392L57.6162 7.98828H67.4951L80.5908 32H72.5224L70.2548 27.6406H54.7509L52.3603 32ZM57.2998 22.6836H67.6005L62.4502 13.1738L57.2998 22.6836ZM103.314 7.98828C106.197 7.98828 108.254 8.54492 109.484 9.6582C110.726 10.7715 111.348 12.7461 111.348 15.582C111.348 16.6602 111.283 17.5859 111.154 18.3594C111.037 19.1211 110.797 19.7891 110.434 20.3633C110.082 20.9258 109.666 21.3477 109.185 21.6289C108.705 21.8984 107.697 22.2852 106.162 22.7891C107.838 23 109.068 23.4277 109.853 24.0723C110.65 24.7051 111.049 25.8125 111.049 27.3945V32H103.631V29.6973C103.631 28.5254 103.531 27.5938 103.332 26.9023C103.133 26.1992 102.178 25.8477 100.467 25.8477H88.2675V32H80.955V7.98828H103.314ZM100.256 20.0117C101.908 20.0117 102.939 19.8066 103.35 19.3965C103.76 18.9863 103.965 18.0781 103.965 16.6719C103.965 15.875 103.883 15.2832 103.719 14.8965C103.566 14.5098 103.244 14.2461 102.752 14.1055C102.26 13.9648 101.855 13.8828 101.539 13.8594C101.234 13.8359 100.865 13.8242 100.432 13.8242H99.8515H88.2675V20.0117H99.3241H100.256ZM138.905 7.98828V13.4551H120.729V17.5684H138.905L136.725 22.3145H120.729V32H113.417V7.98828H138.905ZM142.047 32H133.926L147.303 7.98828H157.181L170.277 32H162.209L159.941 27.6406H144.437L142.047 32ZM146.986 22.6836H157.287L152.137 13.1738L146.986 22.6836ZM193.001 7.98828C195.884 7.98828 197.94 8.54492 199.171 9.6582C200.413 10.7715 201.034 12.7461 201.034 15.582C201.034 16.6602 200.97 17.5859 200.841 18.3594C200.723 19.1211 200.483 19.7891 200.12 20.3633C199.768 20.9258 199.352 21.3477 198.872 21.6289C198.391 21.8984 197.384 22.2852 195.848 22.7891C197.524 23 198.755 23.4277 199.54 24.0723C200.337 24.7051 200.735 25.8125 200.735 27.3945V32H193.317V29.6973C193.317 28.5254 193.218 27.5938 193.018 26.9023C192.819 26.1992 191.864 25.8477 190.153 25.8477H177.954V32H170.641V7.98828H193.001ZM189.942 20.0117C191.595 20.0117 192.626 19.8066 193.036 19.3965C193.446 18.9863 193.651 18.0781 193.651 16.6719C193.651 15.875 193.569 15.2832 193.405 14.8965C193.253 14.5098 192.93 14.2461 192.438 14.1055C191.946 13.9648 191.542 13.8828 191.225 13.8594C190.921 13.8359 190.552 13.8242 190.118 13.8242H189.538H177.954V20.0117H189.011H189.942ZM229.892 7.98828V13.4551H210.416V17.5684H228.592V22.3145H210.416V26.5684H229.892V32H203.103V7.98828H229.892Z" fill="#D8D7D7"/>
</svg>
