<svg width="237" height="44" viewBox="0 0 237 44" fill="none" xmlns="http://www.w3.org/2000/svg">
<path d="M0.423096 6.4955L18.1592 4.06906V21.1532H0.423096V6.4955ZM20.2955 3.73232L43.7946 0.310547V21.0096H20.2955V3.73232ZM0.423096 22.9606H18.1592V40.0943L0.423096 37.6183V22.9606ZM20.2955 23.1884H43.7946V43.6894L20.2955 40.3716V23.1884ZM57.0346 8.72386C58.1525 8.72881 59.2703 8.72881 60.3931 8.74367C62.1369 15.0227 63.8559 21.3116 65.6046 27.5956C65.9772 28.9128 66.2554 30.2598 66.4194 31.6265C68.2377 23.9164 70.7218 16.3696 72.8084 8.72386C73.7772 8.72881 74.7459 8.72881 75.7147 8.73377C77.2499 14.1759 78.6856 19.6428 80.2059 25.09C80.7673 27.2589 81.4926 29.3981 81.7212 31.6414C83.3656 23.9411 85.7105 16.3944 87.5736 8.74367C88.6765 8.72881 89.7794 8.72881 90.8823 8.72881C88.4778 17.4888 85.9739 26.224 83.5395 34.974H79.9575C78.1938 28.69 76.445 22.4011 74.6615 16.127C74.3634 15.1118 74.2392 14.062 74.1448 13.0122C74.0057 13.9184 73.8765 14.8345 73.643 15.7209C71.8396 22.1188 70.0113 28.5068 68.2576 34.9146C67.0652 34.9789 65.8729 34.9839 64.6806 34.974C62.122 26.2289 59.5833 17.4739 57.0346 8.72386ZM92.9292 8.93679C92.9924 8.43689 93.2443 7.97977 93.6338 7.6585C94.0232 7.33723 94.5208 7.17596 95.0253 7.20751C95.5298 7.23906 96.0033 7.46107 96.3494 7.82834C96.6954 8.19561 96.8881 8.68053 96.8881 9.18439C96.8881 9.68825 96.6954 10.1732 96.3494 10.5404C96.0033 10.9077 95.5298 11.1297 95.0253 11.1613C94.5208 11.1928 94.0232 11.0316 93.6338 10.7103C93.2443 10.389 92.9924 9.93189 92.9292 9.43199V8.93679ZM93.3763 16.1567H96.3572V34.974H93.3763V16.1567ZM104.286 19.1873C105.99 16.1616 109.965 14.7702 113.169 16.1716C115.718 17.1619 116.667 20.1034 116.746 22.609C116.885 26.729 116.771 30.854 116.806 34.974C115.812 34.974 114.819 34.974 113.825 34.969C113.78 31.0125 113.929 27.046 113.755 23.0894C113.676 21.1284 112.841 18.7713 110.7 18.2712C107.575 17.3303 104.455 20.138 104.356 23.2181C104.266 27.1351 104.351 31.057 104.321 34.974H101.34C101.345 28.6999 101.345 22.4308 101.34 16.1567H104.326C104.321 17.1669 104.316 18.1771 104.286 19.1873ZM134.626 7.24819C135.62 7.24324 136.614 7.24324 137.607 7.24324V34.974H134.636C134.641 33.9688 134.622 32.9635 134.552 31.9583C132.401 35.8109 126.648 36.6626 123.359 33.8053C121.009 31.7899 120.294 28.5117 120.418 25.5455C120.443 22.5348 121.436 19.3358 123.841 17.3699C126.966 14.8048 132.505 14.9534 134.646 18.7218C134.607 14.894 134.641 11.0711 134.626 7.24819ZM128.208 18.2117C125.823 18.5881 124.208 20.757 123.761 23.0002C123.175 25.704 123.279 28.8336 124.988 31.1313C126.837 33.5776 130.915 33.632 132.893 31.3195C134.239 29.923 134.622 27.9225 134.631 26.0506C134.646 24.0748 134.815 21.8465 133.499 20.1975C132.336 18.5485 130.165 17.8057 128.208 18.2117ZM149.203 15.6912C151.861 15.4585 154.807 15.8744 156.804 17.7908C159.06 19.8657 159.73 23.0894 159.606 26.0358C159.571 28.6851 158.588 31.3739 156.64 33.221C152.576 36.9052 145.03 36.0981 142.451 31.0323C140.424 26.7885 140.832 20.9155 144.533 17.6918C145.859 16.5727 147.539 16.0626 149.203 15.6912ZM148.666 18.3851C144.289 19.727 143.549 25.4267 144.915 29.1753C146.003 32.503 150.246 33.9787 153.292 32.4238C155.353 31.4779 156.292 29.1604 156.491 27.0361C156.715 24.5552 156.516 21.7425 154.757 19.8063C153.267 18.1325 150.743 17.771 148.666 18.3851ZM160.848 16.1567H163.958C165.19 20.6382 166.383 25.1296 167.64 29.6061C167.893 30.4479 167.987 31.3195 168.077 32.191C169.483 26.7934 171.261 21.4949 172.856 16.1517L175.574 16.1666C176.94 21.5147 178.639 26.7835 179.772 32.1861C180.939 26.8132 182.599 21.5592 183.895 16.2161C184.894 16.1666 185.892 16.1517 186.896 16.1418C185.003 22.4159 183.19 28.7098 181.287 34.974H178.197C176.855 29.8735 175.117 24.8721 174.029 19.7171C172.732 24.8671 170.933 29.8785 169.453 34.974H166.467C164.599 28.6999 162.691 22.4407 160.848 16.1567ZM194.408 15.6813C196.271 15.5526 198.169 15.7308 199.922 16.4142C200.409 17.3353 200.032 18.5435 200.146 19.5785C198.054 18.2761 195.173 17.4442 192.902 18.7713C191.347 19.6131 191.273 22.104 192.788 23.03C194.959 24.4314 197.716 24.7978 199.644 26.6003C201.77 28.6405 201.254 32.5624 198.765 34.0926C195.739 36.0139 191.755 35.8257 188.585 34.36C188.585 33.2507 188.58 32.1415 188.56 31.0323C190.816 32.7456 193.985 33.6964 196.683 32.4782C198.258 31.6909 198.337 29.2793 196.951 28.2641C194.78 26.6696 191.804 26.4171 189.877 24.4264C187.974 22.515 188.317 18.9991 190.438 17.3798C191.536 16.3746 193.022 16.0725 194.408 15.6813ZM215.179 8.3079C215.443 8.27324 215.969 8.19896 216.228 8.16429C216.243 17.0976 216.233 26.0358 216.233 34.974H213.291C213.311 27.5362 213.242 20.0935 213.326 12.6557C211.453 13.9481 209.431 15.0524 207.23 15.6665C207.245 14.6761 207.255 13.6857 207.265 12.6953C210.147 11.7198 212.77 10.1451 215.179 8.3079ZM227.098 8.298C229.681 7.86718 232.548 8.80804 234.083 10.9968C236.264 14.067 236.468 18.0038 236.577 21.6335C236.502 25.4663 236.08 29.621 233.626 32.7456C231.365 35.7019 226.735 36.3952 223.705 34.2213C221.245 32.4535 220.282 29.3684 219.844 26.5112C219.348 22.2674 219.392 17.8156 220.873 13.7649C221.807 11.0166 224.112 8.64958 227.098 8.298ZM226.641 10.9572C223.993 12.0268 223.233 15.1465 222.865 17.6819C222.477 21.2176 222.388 24.8622 223.233 28.3434C223.655 30.0567 224.544 31.8741 226.248 32.6268C228.181 33.5974 230.764 32.7605 231.783 30.8589C233.407 28.0611 233.447 24.7037 233.467 21.5592C233.402 18.494 233.278 15.196 231.579 12.5319C230.571 10.9077 228.399 10.254 226.641 10.9572Z" fill="#ADADAD"/>
</svg>
