<svg width="238" height="158" viewBox="0 0 238 158" fill="none" xmlns="http://www.w3.org/2000/svg">
<path d="M113.729 131.45C105.585 130.673 97.34 127.761 90.2576 123.159C84.3228 119.305 82.9835 117.718 82.9835 114.555C82.9835 108.201 89.9995 97.0706 102.004 84.3847C108.82 77.1778 118.316 68.7352 119.342 68.9628C121.34 69.407 137.301 84.9108 143.277 92.2106C152.726 103.749 157.069 113.2 154.862 117.412C153.185 120.614 142.775 126.874 135.128 129.279C128.825 131.261 120.547 132.1 113.729 131.45ZM74.9673 107.949C70.0351 100.415 67.5433 92.9973 66.3416 82.2691C65.9435 78.7269 66.0835 76.7019 67.2422 69.429C68.6835 60.3746 73.8651 49.8886 80.0947 43.4404C82.7463 40.6996 82.9823 40.6262 86.2163 41.7152C90.1359 43.0367 94.3259 45.9194 100.826 51.7729L104.623 55.1916L102.546 57.7244C92.9276 69.4828 82.7758 86.16 78.9545 96.4747C76.8779 102.079 76.0424 107.707 76.9394 110.05C77.5414 111.633 76.9885 111.044 74.9611 107.953L74.9673 107.949ZM161.535 109.23C162.023 106.862 161.406 102.513 159.962 98.1253C156.835 88.6243 146.38 70.9499 136.78 58.932L133.757 55.1487L137.028 52.1596C141.297 48.2564 144.26 45.9194 147.46 43.9335C149.982 42.3674 153.589 40.9811 155.139 40.9811C156.094 40.9811 159.46 44.4682 162.175 48.2613C166.382 54.1344 169.476 61.2678 171.044 68.6826C172.058 73.479 172.143 83.7325 171.208 88.5166C170.433 92.4418 168.812 97.5294 167.239 100.981C166.047 103.567 163.11 108.589 161.82 110.224C161.157 111.065 161.157 111.063 161.525 109.25L161.535 109.23ZM114.601 39.1873C110.17 36.9482 103.336 34.5439 99.5615 33.8954C98.2394 33.669 95.9822 33.5406 94.5483 33.614C91.4322 33.7706 91.5711 33.6091 96.5671 31.2586C100.72 29.3046 104.185 28.1556 108.891 27.1719C114.181 26.0646 124.128 26.0523 129.334 27.145C134.955 28.3257 141.577 30.779 145.307 33.067L146.418 33.7449L143.874 33.6176C138.817 33.3631 131.447 35.3979 123.534 39.2301C121.148 40.3876 119.074 41.3102 118.921 41.2857C118.77 41.2564 116.825 40.313 114.596 39.1873H114.601Z" fill="#ADADAD"/>
</svg>
