<svg xmlns="http://www.w3.org/2000/svg" height="800" width="1200" viewBox="-150 -64.44275 1300 386.6565"><path d="M344.211 70.75h39.905v152.204H344.21zm583.829 87.312v64.312l-40.147-.146V66.052l72.302 62.23v-57.53H1000v157.82l-71.96-70.51M143.534 146.44c0-43.197 35.062-78.256 78.257-78.256 19.467 0 37.288 7.166 50.994 18.933l-25.86 29.346c-6.779-5.715-15.546-9.153-25.134-9.153-21.598 0-39.128 17.53-39.128 39.128 0 21.597 17.53 39.128 39.128 39.128 9.733 0 18.645-3.583 25.521-9.492l25.812 29.394c-13.707 11.96-31.67 19.178-51.333 19.178-43.198.002-78.257-35.01-78.257-78.205"/><path d="M460.097 257.771L384.599 57.188h-63.1v166.346H280.19V57.188h-91.428l21.21-39.953H414.09l46.004 120.194L506.15 17.235h197.629l21.79 39.953H535.641l-75.544 200.583"/><path d="M587.653 222.374v-33.61h27.41c4.455 0 12.93-.338 15.06-7.407 4.407-14.721-40.727-38.596-40.727-75.205 0-27.7 20.048-35.98 33.657-35.98h41.548v33.026h-25.666s-7.36 0-9.395 2.954c-11.139 15.933 41.26 39.225 41.26 82.033 0 22.373-19.177 34.189-38.306 34.189h-44.841M536.223 70.17h39.953v152.204h-39.953zm141.067 0h39.952v152.204H677.29zM113.219 222.954l-10.607-28.328H53.073L42.47 222.954H0L77.87 0l77.87 222.954h-42.521m-48.04-69.01h23.585L76.948 115.01l-11.77 38.935m659.327-7.553c0-43.245 35.11-78.353 78.401-78.353 43.246 0 78.353 35.108 78.353 78.353 0 43.294-35.11 78.402-78.353 78.402-43.291 0-78.401-35.11-78.401-78.402m39.466 0c0 21.5 17.435 38.935 38.935 38.935 21.452 0 38.887-17.434 38.887-38.935 0-21.452-17.435-38.886-38.887-38.886-21.5 0-38.935 17.431-38.935 38.886"/></svg>