<?xml version="1.0" encoding="utf-8"?>
<!-- Generator: Adobe Illustrator 16.0.0, SVG Export Plug-In . SVG Version: 6.00 Build 0)  -->
<!DOCTYPE svg PUBLIC "-//W3C//DTD SVG 1.1//EN" "http://www.w3.org/Graphics/SVG/1.1/DTD/svg11.dtd">
<svg version="1.1" id="Layer_1" xmlns="http://www.w3.org/2000/svg" xmlns:xlink="http://www.w3.org/1999/xlink" x="0px" y="0px"
	 width="1000px" height="259.361px" viewBox="-202.36 291.265 1000 259.361" enable-background="new -202.36 291.265 1000 259.361"
	 xml:space="preserve">
<g>
	<path fill="#C80000" d="M13.967,450.444c5.093-8.646,2.037-19.329-6.608-23.909c-6.104-3.561-13.218-3.047-19.321,1.019
		c-2.542-2.028-5.085-4.065-7.627-6.104c33.052-26.442,51.362-51.867,43.735-65.092c-7.635-12.713-38.65-10.17-78.318,5.084
		c-6.104-41.698-19.329-70.178-34.583-70.178c-9.151,0-17.292,10.17-23.395,26.957c-0.505,0-1.524,0-2.029,0
		c-9.665,0-17.292,8.133-17.292,17.797c0,7.114,4.067,13.218,10.675,15.76c-0.505,3.056-1.011,6.104-1.523,9.664
		c-39.669-15.254-70.684-18.31-78.319-5.084c-7.627,13.225,10.683,38.649,43.742,65.092c-32.554,26.443-50.856,51.875-43.229,64.589
		c4.58,7.626,17.292,9.663,35.595,7.121c0.513,0.505,0.513,1.019,1.019,1.524c5.085,8.646,15.255,11.188,23.901,6.608
		c6.103-3.561,9.665-10.169,8.646-17.292c3.056-1.011,6.104-2.029,9.159-3.561c6.103,41.706,19.321,70.186,34.07,70.186
		c14.75,0,27.967-28.479,34.584-70.186c39.155,15.262,70.683,18.31,78.31,5.092c4.58-7.627,0-19.833-11.693-34.077L13.967,450.444z
		 M6.34,366.527c6.103,10.684-5.59,30.517-29.491,51.362c-8.141-6.104-17.292-12.712-26.956-18.815
		c-0.505-11.693-1.524-22.377-3.048-32.547C-23.151,356.358-0.269,355.852,6.34,366.527z M-70.447,451.455
		c-6.104,3.561-11.702,6.615-17.805,9.664c-5.59-3.049-11.694-6.104-17.797-9.664c-6.104-3.562-11.694-7.115-16.779-10.676
		c-0.513-6.616-0.513-13.226-0.513-19.834s0-13.731,0.513-19.834c5.085-3.561,11.188-7.122,16.779-10.683
		c5.598-3.554,11.702-6.608,17.797-9.657c6.103,3.049,11.701,6.609,17.805,10.17c6.104,3.562,11.694,7.114,16.779,10.675
		c0.513,6.617,0.513,13.226,0.513,19.834c0,6.617,0,13.731-0.513,19.835C-58.753,444.34-64.344,447.894-70.447,451.455z
		 M-53.668,445.352c-0.505,9.664-2.029,19.328-3.561,28.479c-9.151-3.561-17.797-7.114-26.443-11.188
		c5.085-2.542,10.17-5.59,15.255-8.646C-63.332,451.455-58.753,448.407-53.668,445.352z M-91.804,462.643
		c-8.646,4.074-17.292,8.142-26.451,11.188c-1.523-9.656-3.048-18.815-3.553-28.479c5.085,3.056,9.657,6.104,15.255,9.158
		C-101.983,457.558-96.889,460.101-91.804,462.643z M-126.388,438.237c-8.14-5.599-15.768-11.188-22.882-17.292
		c7.115-6.104,15.255-12.207,22.882-17.292c0,5.599-0.505,11.694-0.505,17.292C-126.894,426.535-126.388,432.639-126.388,438.237z
		 M-122.322,396.531c0.513-9.656,2.037-19.32,3.561-28.479c9.151,3.561,17.797,7.122,26.443,11.188
		c-5.085,2.542-10.169,5.598-15.254,8.646C-112.152,390.429-117.237,393.483-122.322,396.531z M-83.672,379.24
		c8.646-4.066,17.292-8.134,26.443-11.188c1.532,9.664,3.056,19.329,3.561,28.479c-4.572-3.048-9.664-6.103-15.255-9.15
		C-73.502,384.325-79.093,381.782-83.672,379.24z M-49.602,403.653c8.14,5.085,15.768,11.188,22.89,17.292
		c-7.122,6.104-15.255,12.207-22.89,17.292c0-5.599,0.513-11.702,0.513-17.292C-49.089,415.348-49.602,409.244-49.602,403.653z
		 M-115.713,353.311c0.513,0,1.532,0,2.037,0c9.665-0.514,17.292-8.646,17.292-18.311c0-5.085-2.542-9.664-6.103-12.712
		c4.579-6.103,9.664-9.664,14.749-9.664c12.712,0,23.396,20.34,30.004,50.857c-9.665,3.561-19.329,8.646-30.004,13.73
		c-10.169-5.085-20.339-9.665-30.003-13.73C-117.237,359.919-116.219,356.358-115.713,353.311z M-182.33,366.527
		c6.104-10.676,29.499-10.169,58.99-0.506c-1.523,10.17-2.542,21.359-3.048,32.547c-9.665,6.104-18.815,12.713-26.956,18.815
		C-176.227,397.044-188.433,377.211-182.33,366.527z M-132.997,478.916c-0.513-0.506-0.513-1.011-1.019-1.523
		c-5.085-8.646-15.255-11.693-23.9-6.608c-4.58,2.541-8.141,7.121-8.646,12.711c-7.627-0.505-13.226-3.048-15.768-7.626
		c-6.103-10.684,5.598-30.518,29.499-51.363c8.133,6.104,17.292,12.712,26.948,18.816c0.513,11.693,1.524,22.377,3.056,32.547
		C-126.388,476.887-129.444,477.905-132.997,478.916z M-87.739,529.772c-12.712,0-23.395-20.34-30.003-50.856
		c9.664-4.066,19.834-8.646,30.003-13.73c10.17,5.085,20.34,9.664,30.004,13.73C-64.344,509.433-75.532,529.772-87.739,529.772z
		 M6.34,475.355c-6.104,10.684-29.491,10.177-58.99,0.514c1.524-10.17,2.542-21.359,3.048-32.547
		c9.665-6.104,18.823-12.713,26.957-18.816c2.542,2.543,5.085,4.572,7.627,7.114c-0.506,0.513-0.506,1.019-1.019,1.532
		c-4.572,8.646-1.523,19.32,7.122,24.405c4.58,2.543,9.665,3.057,14.75,1.02C8.377,464.68,8.882,470.784,6.34,475.355z"/>
	<polygon points="36.857,365.509 11.938,458.07 47.532,458.07 64.824,393.989 71.946,393.989 74.489,383.313 67.366,383.313 
		71.433,369.07 85.164,369.07 83.639,376.191 118.729,376.191 123.813,358.396 45.503,358.396 	"/>
	<polygon points="61.776,458.07 96.865,458.07 117.205,383.313 81.61,383.313 	"/>
	<polygon points="-115.713,458.07 -80.112,458.07 -60.277,383.313 -95.879,383.313 	"/>
	<polygon points="-53.155,383.313 -72.99,458.07 -37.395,458.07 -20.609,393.989 -13.494,393.989 -30.779,458.07 4.816,458.07 
		23.126,390.429 17.528,383.313 	"/>
	<polygon points="189.42,458.07 225.014,458.07 244.847,383.313 209.254,383.313 	"/>
	<polygon points="-93.842,376.191 -58.24,376.191 -53.668,358.396 -89.262,358.396 	"/>
	<polygon points="507.264,383.313 489.972,447.388 482.85,447.388 500.142,383.313 464.54,383.313 447.256,447.388 440.134,447.388 
		457.425,383.313 421.824,383.313 404.028,450.444 409.113,458.07 522.519,458.07 542.354,383.313 	"/>
	<polygon points="211.283,376.191 246.885,376.191 251.465,358.396 215.863,358.396 	"/>
	<path d="M761.533,358.396l-6.609,24.918h-35.595l-9.158,7.115l0,0l-5.085-7.115h-70.691l-19.827,74.244h35.595l17.292-63.568h7.122
		l-3.057,10.684h35.603l-12.206,46.276l5.085,7.121h71.196l26.442-99.675H761.533L761.533,358.396L761.533,358.396z
		 M738.145,447.388h-7.121l14.235-53.398h7.122L738.145,447.388z"/>
	<path d="M620.663,383.313h-70.683l-5.599,21.359h35.602l3.049-10.684h7.121l-5.085,17.797H541.84l-10.675,39.163l5.085,7.121h70.69
		l17.797-67.129L620.663,383.313z M574.899,447.388h-7.121l6.608-24.919h7.122L574.899,447.388z"/>
	<polygon points="333.849,447.388 326.728,447.388 344.019,383.313 308.416,383.313 288.582,458.07 331.306,458.07 326.214,475.355 
		319.099,475.355 322.148,465.186 286.554,465.186 282.992,478.916 288.077,486.039 352.152,486.039 360.798,478.916 
		386.736,383.313 351.133,383.313 	"/>
	<polygon points="284.517,447.388 270.28,447.388 284.517,393.989 298.247,393.989 301.303,383.313 287.059,383.313 
		294.181,358.396 258.579,358.396 233.659,450.444 238.744,458.07 281.469,458.07 	"/>
	<polygon points="124.326,383.313 103.987,458.07 139.581,458.07 156.873,393.989 163.988,393.989 146.703,458.07 182.298,458.07 
		200.095,390.429 195.01,383.313 	"/>
</g>
</svg>
