<svg width="234" height="101" viewBox="0 0 234 101" fill="none" xmlns="http://www.w3.org/2000/svg">
<path d="M11.002 71.9883V88.3359L24.4844 72.1641L37.9316 88.3359V71.9883H44.8047V96H34.5918L24.3613 83.4316L13.5508 96H4.09375V71.9883H11.002ZM53.3603 96H45.2392L58.6162 71.9883H68.4951L81.5908 96H73.5224L71.2548 91.6406H55.7509L53.3603 96ZM58.2998 86.6836H68.6005L63.4502 77.1738L58.2998 86.6836ZM104.314 71.9883C107.197 71.9883 109.254 72.5449 110.484 73.6582C111.726 74.7715 112.348 76.7461 112.348 79.582C112.348 80.6602 112.283 81.5859 112.154 82.3594C112.037 83.1211 111.797 83.7891 111.434 84.3633C111.082 84.9258 110.666 85.3477 110.185 85.6289C109.705 85.8984 108.697 86.2852 107.162 86.7891C108.838 87 110.068 87.4277 110.853 88.0723C111.65 88.7051 112.049 89.8125 112.049 91.3945V96H104.631V93.6973C104.631 92.5254 104.531 91.5938 104.332 90.9023C104.133 90.1992 103.178 89.8477 101.467 89.8477H89.2675V96H81.955V71.9883H104.314ZM101.256 84.0117C102.908 84.0117 103.939 83.8066 104.35 83.3965C104.76 82.9863 104.965 82.0781 104.965 80.6719C104.965 79.875 104.883 79.2832 104.719 78.8965C104.566 78.5098 104.244 78.2461 103.752 78.1055C103.26 77.9648 102.855 77.8828 102.539 77.8594C102.234 77.8359 101.865 77.8242 101.432 77.8242H100.851H89.2675V84.0117H100.324H101.256ZM139.905 71.9883V77.4551H121.729V81.5684H139.905L137.725 86.3145H121.729V96H114.417V71.9883H139.905ZM143.047 96H134.926L148.303 71.9883H158.181L171.277 96H163.209L160.941 91.6406H145.437L143.047 96ZM147.986 86.6836H158.287L153.137 77.1738L147.986 86.6836ZM194.001 71.9883C196.884 71.9883 198.94 72.5449 200.171 73.6582C201.413 74.7715 202.034 76.7461 202.034 79.582C202.034 80.6602 201.97 81.5859 201.841 82.3594C201.723 83.1211 201.483 83.7891 201.12 84.3633C200.768 84.9258 200.352 85.3477 199.872 85.6289C199.391 85.8984 198.384 86.2852 196.848 86.7891C198.524 87 199.755 87.4277 200.54 88.0723C201.337 88.7051 201.735 89.8125 201.735 91.3945V96H194.317V93.6973C194.317 92.5254 194.218 91.5938 194.018 90.9023C193.819 90.1992 192.864 89.8477 191.153 89.8477H178.954V96H171.641V71.9883H194.001ZM190.942 84.0117C192.595 84.0117 193.626 83.8066 194.036 83.3965C194.446 82.9863 194.651 82.0781 194.651 80.6719C194.651 79.875 194.569 79.2832 194.405 78.8965C194.253 78.5098 193.93 78.2461 193.438 78.1055C192.946 77.9648 192.542 77.8828 192.225 77.8594C191.921 77.8359 191.552 77.8242 191.118 77.8242H190.538H178.954V84.0117H190.011H190.942ZM230.892 71.9883V77.4551H211.416V81.5684H229.592V86.3145H211.416V90.5684H230.892V96H204.103V71.9883H230.892Z" fill="#D8D7D7"/>
<path d="M36.9258 64V47.6523L23.4609 63.8242L9.99609 47.6523V64H3.12305V39.9883H13.3535L23.5664 52.5566L34.3945 39.9883H43.834V64H36.9258ZM65.6133 39.7422L71.4492 39.7773C75.7148 39.7773 78.6328 40.4863 80.2031 41.9043C81.7734 43.3105 82.5586 46.1406 82.5586 50.3945V51.5371C82.5586 56.5293 81.9316 59.875 80.6777 61.5742C79.4355 63.2617 76.2832 64.1055 71.2207 64.1055L65.7188 64.2109L63.416 64.2461L58.4414 64.0703C55.6641 64.0703 53.5195 63.4434 52.0078 62.1895C50.4961 60.9238 49.7402 58.8848 49.7402 56.0723L49.6699 51.6602C49.6699 46.7852 50.291 43.5977 51.5332 42.0977C52.7871 40.5977 55.752 39.8477 60.4277 39.8477L65.6133 39.7422ZM61.6582 58.2695L65.5781 58.3398L69.3223 58.3047C71.3848 58.3047 72.8613 58.0879 73.752 57.6543C74.6543 57.209 75.1055 56.1074 75.1055 54.3496L75.1934 51.1152C75.1934 50.0137 75.123 49.0703 74.9824 48.2852C74.8535 47.5 74.584 46.9258 74.1738 46.5625C73.7637 46.1875 73.1543 45.9414 72.3457 45.8242C71.5488 45.707 70.6934 45.6484 69.7793 45.6484L62.5195 45.6836C60.8555 45.6836 59.5898 45.8535 58.7227 46.1934C57.8672 46.5215 57.3691 47.2305 57.2285 48.3203C57.0996 49.4102 57.0352 50.3184 57.0352 51.0449V51.6953V52.6621C57.0352 54.8652 57.293 56.3535 57.8086 57.127C58.3242 57.8887 59.6074 58.2695 61.6582 58.2695ZM109.506 39.9883C113.854 39.9883 116.771 40.709 118.26 42.1504C119.748 43.5918 120.492 46.4688 120.492 50.7812V52.1523V52.9082V53.5586C120.492 54.6836 120.475 55.4746 120.439 55.9316C120.404 56.3887 120.264 57.3203 120.018 58.7266C119.783 60.1328 118.957 61.3633 117.539 62.418C116.121 63.4727 114.346 64 112.213 64H88.3418V39.9883H109.506ZM113.109 52.082V51.8711C113.109 49.5156 112.846 47.9336 112.318 47.125C111.791 46.3047 110.373 45.8945 108.064 45.8945H95.6543V58.1289H107.959C110.221 58.1289 111.645 57.7129 112.23 56.8809C112.816 56.0371 113.109 54.4375 113.109 52.082ZM153.064 39.9883V45.4551H133.588V49.5684H151.764V54.3145H133.588V58.5684H153.064V64H126.275V39.9883H153.064ZM180.838 39.9883C183.721 39.9883 185.777 40.5449 187.008 41.6582C188.25 42.7715 188.871 44.7461 188.871 47.582C188.871 48.6602 188.807 49.5859 188.678 50.3594C188.561 51.1211 188.32 51.7891 187.957 52.3633C187.605 52.9258 187.189 53.3477 186.709 53.6289C186.229 53.8984 185.221 54.2852 183.686 54.7891C185.361 55 186.592 55.4277 187.377 56.0723C188.174 56.7051 188.572 57.8125 188.572 59.3945V64H181.154V61.6973C181.154 60.5254 181.055 59.5938 180.855 58.9023C180.656 58.1992 179.701 57.8477 177.99 57.8477H165.791V64H158.479V39.9883H180.838ZM177.779 52.0117C179.432 52.0117 180.463 51.8066 180.873 51.3965C181.283 50.9863 181.488 50.0781 181.488 48.6719C181.488 47.875 181.406 47.2832 181.242 46.8965C181.09 46.5098 180.768 46.2461 180.275 46.1055C179.783 45.9648 179.379 45.8828 179.062 45.8594C178.758 45.8359 178.389 45.8242 177.955 45.8242H177.375H165.791V52.0117H176.848H177.779ZM216.223 64L201.738 45.9648V64H194.865V39.9883H206.502L220.969 57.9883V39.9883H227.842V64H216.223Z" fill="#D8D7D7"/>
<path d="M36.5312 3.82422H37.7031C41.8307 3.82422 44.7995 5.25651 46.6094 8.12109C47.1823 9.64453 47.4688 11.7799 47.4688 14.5273V17.3398H38.7969V12.418C38.7969 10.1263 38.5365 8.98047 38.0156 8.98047C37.9245 8.92839 37.8203 8.90234 37.7031 8.90234H37C36.1667 8.90234 35.75 9.68359 35.75 11.2461V27.2617C35.75 28.6159 36.0104 29.3711 36.5312 29.5273C36.8177 29.5794 37.0521 29.6055 37.2344 29.6055H37.4688C38.3542 29.6055 38.7969 28.7201 38.7969 26.9492V22.1836H47.4688V23.4336C47.4688 27.5742 46.974 30.1523 45.9844 31.168C43.9661 33.5117 41.2057 34.6836 37.7031 34.6836H36.8438C33.0938 34.6836 30.3333 33.5898 28.5625 31.4023C27.5208 30.4648 27 27.0534 27 21.168V18.043C27 12.2617 27.2344 9.11068 27.7031 8.58984C28.5755 6.75391 30.1641 5.39974 32.4688 4.52734C33.862 4.05859 35.2161 3.82422 36.5312 3.82422ZM53.3969 4.23438H65.8188C65.949 4.23438 66.1052 5.06771 66.2875 6.73438C66.4958 7.59375 68.0063 16.6823 70.8188 34H62.85C62.7198 34 62.5896 33.1406 62.4594 31.4219C62.4073 31.4219 62.2771 30.4323 62.0688 28.4531H59.1781V28.375C59.3344 26.4609 59.5167 24.8203 59.725 23.4531H61.4438C61.4438 23.2448 60.949 19.1302 59.9594 11.1094H59.8813C59.8813 11.5 58.9698 19.1302 57.1469 34H49.0219C49.0349 33.7656 50.4932 23.8438 53.3969 4.23438ZM72.2547 4.3125H80.8484V27.9844H86.0828V34H72.3328L72.1766 33.9219L72.2547 33.7656V4.3125ZM87.675 4.3125H96.2687V27.9844H101.503V34H87.7531L87.5969 33.9219L87.675 33.7656V4.3125Z" fill="#9B9B9B"/>
<path d="M107.182 13.4422H107.369C108.689 13.4422 109.588 13.95 110.064 14.9656C110.189 15.2039 110.252 15.9851 110.252 17.3094V18.9031C110.252 20.4305 110.15 21.2976 109.947 21.5047C109.404 22.3484 108.576 22.7703 107.463 22.7703H107.041C106.002 22.7703 105.197 22.3953 104.627 21.6453C104.377 21.3211 104.252 20.6414 104.252 19.6062V16.7937C104.252 15.7039 104.346 15.0164 104.533 14.7312C105.057 13.8719 105.939 13.4422 107.182 13.4422ZM106.854 20.3094C106.854 20.9187 106.924 21.2234 107.064 21.2234L107.205 21.2469H107.299C107.518 21.2469 107.627 21.0125 107.627 20.5437C107.643 20.4422 107.65 20.2 107.65 19.8172V16.1609C107.65 15.4265 107.604 15.0594 107.51 15.0594C107.51 15.0125 107.424 14.9812 107.252 14.9656C106.986 14.9656 106.854 15.2078 106.854 15.6922V20.3094ZM110.768 13.6121H115.15V15.4168H113.369V17.1043H114.963V18.7683C114.963 18.7996 114.947 18.8152 114.916 18.8152H113.369V22.5652H110.768V13.6121Z" fill="#9B9B9B"/>
<path d="M118 4.3125H128.234C128.286 4.3125 128.312 4.33854 128.312 4.39062C128.365 4.39062 128.391 4.36458 128.391 4.3125C131.789 4.52083 133.742 4.83333 134.25 5.25C135.461 5.6276 136.451 6.40885 137.219 7.59375C137.792 8.36198 138.078 10.6536 138.078 14.4688V25.1719C138.078 29.0911 137.688 31.3307 136.906 31.8906C135.982 33.2969 133.586 34 129.719 34H118V4.3125ZM126.75 9.39062V28.8438H127.219C128.573 28.8438 129.25 28.2448 129.25 27.0469C129.354 26.3177 129.406 25.1458 129.406 23.5312V14.0781C129.406 11.3177 129.224 9.9375 128.859 9.9375C128.859 9.67708 128.156 9.49479 126.75 9.39062ZM139.514 4.23438H148.108V26.7344C148.108 28.5573 148.42 29.4688 149.045 29.4688H149.28C150.061 29.4688 150.452 28.8438 150.452 27.5938C150.504 27.2812 150.53 26.6042 150.53 25.5625V4.23438H159.123V24.7812C159.123 27.5026 158.915 29.2734 158.498 30.0938C156.897 33.0625 153.954 34.5469 149.67 34.5469H149.592C144.605 34.4297 141.428 32.8411 140.061 29.7812C139.696 29.1042 139.514 27.2552 139.514 24.2344V4.23438ZM160.794 4.23438H179.388C179.492 4.2474 179.544 4.29948 179.544 4.39062V10.25H174.466V34H165.872C165.768 34 165.716 33.9479 165.716 33.8438V10.25H160.638V4.39062C160.651 4.28646 160.703 4.23438 160.794 4.23438ZM181.448 4H189.105C189.261 4 190.016 6.26562 191.37 10.7969C193.714 17.8542 195.042 21.9948 195.355 23.2188V33.8438C195.355 33.9479 195.303 34 195.198 34H187.464C187.36 34 187.308 33.9479 187.308 33.8438V23.2969C187.308 23.2448 187.334 23.2188 187.386 23.2188L181.292 4.07812L181.448 4ZM201.448 4C201.553 4.01302 201.605 4.0651 201.605 4.15625C199.157 11.4479 197.334 17.0208 196.136 20.875H195.98C195.563 19.4688 194.365 15.7448 192.386 9.70312C192.855 7.51562 193.297 5.61458 193.714 4H201.448Z" fill="#9B9B9B"/>
</svg>
