<svg width="114" height="23" viewBox="0 0 114 23" fill="none" xmlns="http://www.w3.org/2000/svg">
<path d="M4.76562 2.91211H5.35156C7.41536 2.91211 8.89974 3.62826 9.80469 5.06055C10.0911 5.82227 10.2344 6.88997 10.2344 8.26367V9.66992H5.89844V7.20898C5.89844 6.06315 5.76823 5.49023 5.50781 5.49023C5.46224 5.46419 5.41016 5.45117 5.35156 5.45117H5C4.58333 5.45117 4.375 5.8418 4.375 6.62305V14.6309C4.375 15.3079 4.50521 15.6855 4.76562 15.7637C4.90885 15.7897 5.02604 15.8027 5.11719 15.8027H5.23438C5.67708 15.8027 5.89844 15.36 5.89844 14.4746V12.0918H10.2344V12.7168C10.2344 14.7871 9.98698 16.0762 9.49219 16.584C8.48307 17.7559 7.10286 18.3418 5.35156 18.3418H4.92188C3.04688 18.3418 1.66667 17.7949 0.78125 16.7012C0.260417 16.2324 0 14.5267 0 11.584V10.0215C0 7.13086 0.117188 5.55534 0.351562 5.29492C0.78776 4.37695 1.58203 3.69987 2.73438 3.26367C3.43099 3.0293 4.10807 2.91211 4.76562 2.91211ZM13.3984 3.11719H19.6094C19.6745 3.11719 19.7526 3.53385 19.8438 4.36719C19.9479 4.79688 20.7031 9.34115 22.1094 18H18.125C18.0599 18 17.9948 17.5703 17.9297 16.7109C17.9036 16.7109 17.8385 16.2161 17.7344 15.2266H16.2891V15.1875C16.3672 14.2305 16.4583 13.4102 16.5625 12.7266H17.4219C17.4219 12.6224 17.1745 10.5651 16.6797 6.55469H16.6406C16.6406 6.75 16.1849 10.5651 15.2734 18H11.2109C11.2174 17.8828 11.9466 12.9219 13.3984 3.11719ZM23.0273 3.15625H27.3242V14.9922H29.9414V18H23.0664L22.9883 17.9609L23.0273 17.8828V3.15625ZM30.9375 3.15625H35.2344V14.9922H37.8516V18H30.9766L30.8984 17.9609L30.9375 17.8828V3.15625ZM48.6523 2.79492H48.9648C51.1654 2.79492 52.6628 3.64128 53.457 5.33398C53.6654 5.73112 53.7695 7.0332 53.7695 9.24023V11.8965C53.7695 14.4421 53.6003 15.8874 53.2617 16.2324C52.3568 17.6387 50.9766 18.3418 49.1211 18.3418H48.418C46.6862 18.3418 45.3451 17.7168 44.3945 16.4668C43.9779 15.9264 43.7695 14.7936 43.7695 13.0684V8.38086C43.7695 6.56445 43.9258 5.41862 44.2383 4.94336C45.1107 3.51107 46.582 2.79492 48.6523 2.79492ZM48.1055 14.2402C48.1055 15.2559 48.2227 15.7637 48.457 15.7637L48.6914 15.8027H48.8477C49.2122 15.8027 49.3945 15.4121 49.3945 14.6309C49.4206 14.4616 49.4336 14.0579 49.4336 13.4199V7.32617C49.4336 6.10221 49.3555 5.49023 49.1992 5.49023C49.1992 5.41211 49.056 5.36003 48.7695 5.33398C48.3268 5.33398 48.1055 5.73763 48.1055 6.54492V14.2402ZM54.6289 3.07812H61.9336V6.08594H58.9648V8.89844H61.6211V11.6719C61.6211 11.724 61.5951 11.75 61.543 11.75H58.9648V18H54.6289V3.07812ZM67.8906 3.15625H73.0078C73.0339 3.15625 73.0469 3.16927 73.0469 3.19531C73.0729 3.19531 73.0859 3.18229 73.0859 3.15625C74.7852 3.26042 75.7617 3.41667 76.0156 3.625C76.6211 3.8138 77.1159 4.20443 77.5 4.79688C77.7865 5.18099 77.9297 6.32682 77.9297 8.23438V13.5859C77.9297 15.5456 77.7344 16.6654 77.3438 16.9453C76.8815 17.6484 75.6836 18 73.75 18H67.8906V3.15625ZM72.2656 5.69531V15.4219H72.5C73.1771 15.4219 73.5156 15.1224 73.5156 14.5234C73.5677 14.1589 73.5938 13.5729 73.5938 12.7656V8.03906C73.5938 6.65885 73.5026 5.96875 73.3203 5.96875C73.3203 5.83854 72.9688 5.7474 72.2656 5.69531ZM78.8477 3.11719H83.1445V14.3672C83.1445 15.2786 83.3008 15.7344 83.6133 15.7344H83.7305C84.1211 15.7344 84.3164 15.4219 84.3164 14.7969C84.3424 14.6406 84.3555 14.3021 84.3555 13.7812V3.11719H88.6523V13.3906C88.6523 14.7513 88.5482 15.6367 88.3398 16.0469C87.5391 17.5312 86.0677 18.2734 83.9258 18.2734H83.8867C81.3932 18.2148 79.8047 17.4206 79.1211 15.8906C78.9388 15.5521 78.8477 14.6276 78.8477 13.1172V3.11719ZM89.6875 3.11719H98.9844C99.0365 3.1237 99.0625 3.14974 99.0625 3.19531V6.125H96.5234V18H92.2266C92.1745 18 92.1484 17.974 92.1484 17.9219V6.125H89.6094V3.19531C89.6159 3.14323 89.6419 3.11719 89.6875 3.11719ZM100.215 3H104.043C104.121 3 104.499 4.13281 105.176 6.39844C106.348 9.92708 107.012 11.9974 107.168 12.6094V17.9219C107.168 17.974 107.142 18 107.09 18H103.223C103.171 18 103.145 17.974 103.145 17.9219V12.6484C103.145 12.6224 103.158 12.6094 103.184 12.6094L100.137 3.03906L100.215 3ZM110.215 3C110.267 3.00651 110.293 3.03255 110.293 3.07812C109.069 6.72396 108.158 9.51042 107.559 11.4375H107.48C107.272 10.7344 106.673 8.8724 105.684 5.85156C105.918 4.75781 106.139 3.80729 106.348 3H110.215Z" fill="white"/>
</svg>
