<svg width="99" height="89" viewBox="0 0 99 89" fill="none" xmlns="http://www.w3.org/2000/svg">
<path fill-rule="evenodd" clip-rule="evenodd" d="M98.1197 68.1169C96.1852 70.9589 91.4477 72.9856 91.4477 72.9856L56.2019 87.7316V76.8573L82.1403 66.0925C85.0838 64.8637 85.5358 63.1276 83.1433 62.2156C80.7553 61.3012 76.4308 61.5633 73.4853 62.7973L56.2019 69.8873V58.6013L57.1984 58.2087C57.1984 58.2087 62.1924 56.15 69.2154 55.2438C76.2378 54.3429 84.8363 55.3667 91.5867 58.3473C99.1942 61.1475 100.051 65.2748 98.1197 68.1169ZM59.5574 49.5994V21.7887C59.5574 18.5227 59.0399 15.5165 56.4089 14.665C54.3939 13.9132 53.1439 16.0919 53.1439 19.3555V89L37.019 83.0387V0C43.875 1.48217 53.8639 4.98696 59.2334 7.09519C72.8893 12.5562 77.5193 19.3532 77.5193 34.6676C77.5193 49.5941 69.6089 55.2514 59.5574 49.5994ZM7.43121 75.7205C-0.378745 73.1586 -1.67824 67.821 1.88124 64.746C5.17122 61.9069 10.7662 59.7695 10.7662 59.7695L33.8866 50.194V61.1108L17.2487 68.0458C14.3097 69.274 13.8577 71.013 16.2462 71.9245C18.6361 72.8359 22.9626 72.5767 25.9061 71.3456L33.8866 67.9724V77.739C33.3806 77.8438 32.8166 77.9487 32.2946 78.0506C24.3116 79.57 15.8097 78.9364 7.43121 75.7205ZM92.9832 80.0447C93.9932 80.0447 94.9397 80.5001 95.6527 81.3411C96.0044 81.7478 96.2833 82.2318 96.4732 82.7651C96.663 83.2983 96.7601 83.8702 96.7587 84.4475C96.7605 85.0249 96.6636 85.5969 96.4737 86.1302C96.2839 86.6635 96.0048 87.1475 95.6527 87.5539C95.3038 87.9651 94.888 88.291 94.4296 88.5127C93.9713 88.7344 93.4795 88.8474 92.9832 88.8451C92.487 88.8471 91.9955 88.734 91.5372 88.5123C91.079 88.2906 90.6632 87.9648 90.3142 87.5539C89.9624 87.1474 89.6836 86.6633 89.4941 86.13C89.3045 85.5967 89.2081 85.0247 89.2102 84.4475C89.2102 82.0219 90.9012 80.0447 92.9832 80.0447ZM89.8442 84.4475C89.8442 85.4242 90.1702 86.3437 90.7642 87.0298C91.0541 87.3718 91.3997 87.6429 91.7808 87.8274C92.1618 88.0118 92.5706 88.1057 92.9832 88.1037C93.8157 88.1034 94.614 87.7181 95.2027 87.0325C95.7914 86.3469 96.1223 85.4171 96.1227 84.4475C96.1227 83.4679 95.7987 82.5489 95.2027 81.8594C94.9126 81.5177 94.5669 81.2469 94.1857 81.063C93.8046 80.8791 93.3958 80.7857 92.9832 80.7884C92.5706 80.7858 92.1618 80.8793 91.7806 81.0633C91.3995 81.2473 91.0538 81.5182 90.7637 81.86C90.4709 82.1987 90.2388 82.602 90.0809 83.0462C89.9231 83.4904 89.8426 83.9667 89.8442 84.4475ZM94.1232 82.0772C94.5372 82.2892 94.7462 82.698 94.7462 83.2792C94.7462 83.578 94.6922 83.829 94.5822 84.0258C94.5032 84.1674 94.3912 84.2821 94.2652 84.3817C94.3642 84.4498 94.4517 84.5314 94.5167 84.6257C94.6067 84.7614 94.6587 84.9792 94.6652 85.2751L94.6852 85.9011C94.6922 86.0688 94.7012 86.197 94.7237 86.2756C94.7462 86.3909 94.7887 86.4643 94.8432 86.4876L94.8992 86.519V86.8044H94.0852L94.0582 86.7497C94.0339 86.6887 94.0157 86.6246 94.0042 86.5586C93.9875 86.432 93.9778 86.3041 93.9752 86.176L93.9412 85.3979C93.9322 85.1283 93.8537 84.9612 93.7052 84.8715C93.6127 84.822 93.4602 84.7987 93.2532 84.7987H92.1082V86.8044H91.3777V81.9095H93.3297C93.6487 81.9095 93.9167 81.9642 94.1232 82.0772ZM92.1082 84.0491H93.2732C93.5072 84.0491 93.6937 83.9996 93.8267 83.8977C93.9482 83.7952 94.0067 83.6094 94.0067 83.3392C94.0067 83.0463 93.9232 82.8547 93.7477 82.7528C93.6512 82.698 93.5162 82.6666 93.3452 82.6666H92.1087L92.1082 84.0491Z" fill="#ADADAD"/>
</svg>
