<svg xmlns="http://www.w3.org/2000/svg" height="800" width="1200" viewBox="-22.35 -10.996375 193.7 65.97825"><path d="M149 43.0574l-16.2805-22.052 14.86-20.0415h-5.5727l-12.092 16.3483L117.823.964h-5.5357l14.823 20.0446-16.2437 22.0489h5.572l13.476-18.2507 13.5124 18.2507H149m-110.8668-.0001l-16.244-22.052L36.7127.9638h-5.5362l-12.092 16.3483L6.9928.964H1.4202l14.86 20.0446L0 43.0574h5.5725l13.5123-18.2507 13.4759 18.2507h5.5725"/><path d="M57.6188 38.6614H45.1989v-15.315h12.4199c4.7347 0 10.3437 1.2863 10.3437 7.324 0 6.9438-6.4831 7.991-10.3437 7.991zM45.1989 5.36h12.4199c3.3507 0 8.996.8409 8.996 6.6938 0 4.4283-3.278 7.0596-8.996 7.0596H45.1989zM69.055 22.6c-.874-.7575-1.8212-1.33-2.768-1.7577 3.0592-1.6597 5.0626-4.7837 5.0626-8.4261 0-2.6854-.9837-11.4522-13.731-11.4522H40.464v18.1565h-5.7181c-.7648.9568-2.4404 3.2689-3.0959 4.2145h8.814v19.7222h17.1548c9.3237 0 15.1149-4.7075 15.1149-12.289 0-3.312-1.2749-6.1317-3.6787-8.1681M95.06 39.5314c-9.0689 0-15.4067-7.2084-15.4067-17.5443 0-10.325 6.3375-17.5333 15.4067-17.5333 9.0323 0 15.3335 7.2082 15.3335 17.5333 0 10.3359-6.3015 17.5443-15.3335 17.5443zM95.06 0C83.1505 0 74.8458 9.0387 74.8458 21.9873c0 12.956 8.3044 21.9982 20.2142 21.9982 11.8367 0 20.1413-9.0422 20.1413-21.9982C115.201 9.0384 106.8967 0 95.06 0"/></svg>