<svg width="177" height="42" viewBox="0 0 177 42" fill="none" xmlns="http://www.w3.org/2000/svg">
<path d="M9.53125 3.82422H10.7031C14.8307 3.82422 17.7995 5.25651 19.6094 8.12109C20.1823 9.64453 20.4688 11.7799 20.4688 14.5273V17.3398H11.7969V12.418C11.7969 10.1263 11.5365 8.98047 11.0156 8.98047C10.9245 8.92839 10.8203 8.90234 10.7031 8.90234H10C9.16667 8.90234 8.75 9.68359 8.75 11.2461V27.2617C8.75 28.6159 9.01042 29.3711 9.53125 29.5273C9.81771 29.5794 10.0521 29.6055 10.2344 29.6055H10.4688C11.3542 29.6055 11.7969 28.7201 11.7969 26.9492V22.1836H20.4688V23.4336C20.4688 27.5742 19.974 30.1523 18.9844 31.168C16.9661 33.5117 14.2057 34.6836 10.7031 34.6836H9.84375C6.09375 34.6836 3.33333 33.5898 1.5625 31.4023C0.520833 30.4648 0 27.0534 0 21.168V18.043C0 12.2617 0.234375 9.11068 0.703125 8.58984C1.57552 6.75391 3.16406 5.39974 5.46875 4.52734C6.86198 4.05859 8.21615 3.82422 9.53125 3.82422ZM26.3969 4.23438H38.8188C38.949 4.23438 39.1052 5.06771 39.2875 6.73438C39.4958 7.59375 41.0063 16.6823 43.8188 34H35.85C35.7198 34 35.5896 33.1406 35.4594 31.4219C35.4073 31.4219 35.2771 30.4323 35.0688 28.4531H32.1781V28.375C32.3344 26.4609 32.5167 24.8203 32.725 23.4531H34.4438C34.4438 23.2448 33.949 19.1302 32.9594 11.1094H32.8813C32.8813 11.5 31.9698 19.1302 30.1469 34H22.0219C22.0349 33.7656 23.4932 23.8438 26.3969 4.23438ZM45.2547 4.3125H53.8484V27.9844H59.0828V34H45.3328L45.1766 33.9219L45.2547 33.7656V4.3125ZM60.675 4.3125H69.2687V27.9844H74.5031V34H60.7531L60.5969 33.9219L60.675 33.7656V4.3125Z" fill="#9B9B9B"/>
<path d="M80.1816 13.4422H80.3691C81.6895 13.4422 82.5879 13.95 83.0645 14.9656C83.1895 15.2039 83.252 15.9851 83.252 17.3094V18.9031C83.252 20.4305 83.1504 21.2976 82.9473 21.5047C82.4043 22.3484 81.5762 22.7703 80.4629 22.7703H80.041C79.002 22.7703 78.1973 22.3953 77.627 21.6453C77.377 21.3211 77.252 20.6414 77.252 19.6062V16.7937C77.252 15.7039 77.3457 15.0164 77.5332 14.7312C78.0566 13.8719 78.9395 13.4422 80.1816 13.4422ZM79.8535 20.3094C79.8535 20.9187 79.9238 21.2234 80.0645 21.2234L80.2051 21.2469H80.2988C80.5176 21.2469 80.627 21.0125 80.627 20.5437C80.6426 20.4422 80.6504 20.2 80.6504 19.8172V16.1609C80.6504 15.4265 80.6035 15.0594 80.5098 15.0594C80.5098 15.0125 80.4238 14.9812 80.252 14.9656C79.9863 14.9656 79.8535 15.2078 79.8535 15.6922V20.3094ZM83.7676 13.6121H88.1504V15.4168H86.3691V17.1043H87.9629V18.7683C87.9629 18.7996 87.9473 18.8152 87.916 18.8152H86.3691V22.5652H83.7676V13.6121Z" fill="#9B9B9B"/>
<path d="M91 4.3125H101.234C101.286 4.3125 101.312 4.33854 101.312 4.39062C101.365 4.39062 101.391 4.36458 101.391 4.3125C104.789 4.52083 106.742 4.83333 107.25 5.25C108.461 5.6276 109.451 6.40885 110.219 7.59375C110.792 8.36198 111.078 10.6536 111.078 14.4688V25.1719C111.078 29.0911 110.688 31.3307 109.906 31.8906C108.982 33.2969 106.586 34 102.719 34H91V4.3125ZM99.75 9.39062V28.8438H100.219C101.573 28.8438 102.25 28.2448 102.25 27.0469C102.354 26.3177 102.406 25.1458 102.406 23.5312V14.0781C102.406 11.3177 102.224 9.9375 101.859 9.9375C101.859 9.67708 101.156 9.49479 99.75 9.39062ZM112.514 4.23438H121.108V26.7344C121.108 28.5573 121.42 29.4688 122.045 29.4688H122.28C123.061 29.4688 123.452 28.8438 123.452 27.5938C123.504 27.2812 123.53 26.6042 123.53 25.5625V4.23438H132.123V24.7812C132.123 27.5026 131.915 29.2734 131.498 30.0938C129.897 33.0625 126.954 34.5469 122.67 34.5469H122.592C117.605 34.4297 114.428 32.8411 113.061 29.7812C112.696 29.1042 112.514 27.2552 112.514 24.2344V4.23438ZM133.794 4.23438H152.388C152.492 4.2474 152.544 4.29948 152.544 4.39062V10.25H147.466V34H138.872C138.768 34 138.716 33.9479 138.716 33.8438V10.25H133.638V4.39062C133.651 4.28646 133.703 4.23438 133.794 4.23438ZM154.448 4H162.105C162.261 4 163.016 6.26562 164.37 10.7969C166.714 17.8542 168.042 21.9948 168.355 23.2188V33.8438C168.355 33.9479 168.303 34 168.198 34H160.464C160.36 34 160.308 33.9479 160.308 33.8438V23.2969C160.308 23.2448 160.334 23.2188 160.386 23.2188L154.292 4.07812L154.448 4ZM174.448 4C174.553 4.01302 174.605 4.0651 174.605 4.15625C172.157 11.4479 170.334 17.0208 169.136 20.875H168.98C168.563 19.4688 167.365 15.7448 165.386 9.70312C165.855 7.51562 166.297 5.61458 166.714 4H174.448Z" fill="#9B9B9B"/>
</svg>
