<svg width="231" height="41" viewBox="0 0 231 41" fill="none" xmlns="http://www.w3.org/2000/svg">
<path d="M36.9258 34V17.6523L23.4609 33.8242L9.99609 17.6523V34H3.12305V9.98828H13.3535L23.5664 22.5566L34.3945 9.98828H43.834V34H36.9258ZM65.6133 9.74219L71.4492 9.77734C75.7148 9.77734 78.6328 10.4863 80.2031 11.9043C81.7734 13.3105 82.5586 16.1406 82.5586 20.3945V21.5371C82.5586 26.5293 81.9316 29.875 80.6777 31.5742C79.4355 33.2617 76.2832 34.1055 71.2207 34.1055L65.7188 34.2109L63.416 34.2461L58.4414 34.0703C55.6641 34.0703 53.5195 33.4434 52.0078 32.1895C50.4961 30.9238 49.7402 28.8848 49.7402 26.0723L49.6699 21.6602C49.6699 16.7852 50.291 13.5977 51.5332 12.0977C52.7871 10.5977 55.752 9.84766 60.4277 9.84766L65.6133 9.74219ZM61.6582 28.2695L65.5781 28.3398L69.3223 28.3047C71.3848 28.3047 72.8613 28.0879 73.752 27.6543C74.6543 27.209 75.1055 26.1074 75.1055 24.3496L75.1934 21.1152C75.1934 20.0137 75.123 19.0703 74.9824 18.2852C74.8535 17.5 74.584 16.9258 74.1738 16.5625C73.7637 16.1875 73.1543 15.9414 72.3457 15.8242C71.5488 15.707 70.6934 15.6484 69.7793 15.6484L62.5195 15.6836C60.8555 15.6836 59.5898 15.8535 58.7227 16.1934C57.8672 16.5215 57.3691 17.2305 57.2285 18.3203C57.0996 19.4102 57.0352 20.3184 57.0352 21.0449V21.6953V22.6621C57.0352 24.8652 57.293 26.3535 57.8086 27.127C58.3242 27.8887 59.6074 28.2695 61.6582 28.2695ZM109.506 9.98828C113.854 9.98828 116.771 10.709 118.26 12.1504C119.748 13.5918 120.492 16.4688 120.492 20.7812V22.1523V22.9082V23.5586C120.492 24.6836 120.475 25.4746 120.439 25.9316C120.404 26.3887 120.264 27.3203 120.018 28.7266C119.783 30.1328 118.957 31.3633 117.539 32.418C116.121 33.4727 114.346 34 112.213 34H88.3418V9.98828H109.506ZM113.109 22.082V21.8711C113.109 19.5156 112.846 17.9336 112.318 17.125C111.791 16.3047 110.373 15.8945 108.064 15.8945H95.6543V28.1289H107.959C110.221 28.1289 111.645 27.7129 112.23 26.8809C112.816 26.0371 113.109 24.4375 113.109 22.082ZM153.064 9.98828V15.4551H133.588V19.5684H151.764V24.3145H133.588V28.5684H153.064V34H126.275V9.98828H153.064ZM180.838 9.98828C183.721 9.98828 185.777 10.5449 187.008 11.6582C188.25 12.7715 188.871 14.7461 188.871 17.582C188.871 18.6602 188.807 19.5859 188.678 20.3594C188.561 21.1211 188.32 21.7891 187.957 22.3633C187.605 22.9258 187.189 23.3477 186.709 23.6289C186.229 23.8984 185.221 24.2852 183.686 24.7891C185.361 25 186.592 25.4277 187.377 26.0723C188.174 26.7051 188.572 27.8125 188.572 29.3945V34H181.154V31.6973C181.154 30.5254 181.055 29.5938 180.855 28.9023C180.656 28.1992 179.701 27.8477 177.99 27.8477H165.791V34H158.479V9.98828H180.838ZM177.779 22.0117C179.432 22.0117 180.463 21.8066 180.873 21.3965C181.283 20.9863 181.488 20.0781 181.488 18.6719C181.488 17.875 181.406 17.2832 181.242 16.8965C181.09 16.5098 180.768 16.2461 180.275 16.1055C179.783 15.9648 179.379 15.8828 179.062 15.8594C178.758 15.8359 178.389 15.8242 177.955 15.8242H177.375H165.791V22.0117H176.848H177.779ZM216.223 34L201.738 15.9648V34H194.865V9.98828H206.502L220.969 27.9883V9.98828H227.842V34H216.223Z" fill="#D8D7D7"/>
</svg>
